<svg width="75" height="50" viewBox="0 0 75 50" fill="none" xmlns="http://www.w3.org/2000/svg">
<path d="M46.095 13.9809C45.6365 12.461 45.3649 11.0781 44.8159 9.809C43.0892 5.83473 39.0294 3.74004 34.3541 4.21097C29.6789 4.68191 25.5509 6.62211 21.7935 9.3364C14.6423 14.505 9.3906 21.1653 6.45039 29.5375C5.17962 33.1512 4.58411 36.873 5.43876 40.692C6.48776 45.4171 9.94458 48.378 14.7685 48.4943C16.4994 48.5375 18.2436 48.138 19.9812 47.9279C20.2552 47.8747 20.526 47.8058 20.7918 47.7202L20.8665 47.9835C18.9488 48.535 17.0534 49.1795 15.1107 49.6156C12.781 50.1704 10.3491 50.1239 8.04259 49.481C3.58244 48.1936 1.21532 45.025 0.352365 40.6172C-0.44581 36.535 0.176285 32.5308 1.57164 28.6994C5.89474 16.8065 13.6406 7.89786 25.0011 2.26413C27.9239 0.784886 31.1523 0.00913624 34.428 0C40.9098 0.0099668 45.3774 4.13041 45.9372 10.6263C46.0244 11.7068 46.0369 12.7808 46.095 13.9809Z" fill="#333C73"/>
<path d="M40.468 21.2683C40.7213 19.5665 41.0901 17.9403 41.1706 16.2924C41.2421 14.9245 41.1167 13.5524 40.7977 12.2201C39.9107 8.65202 37.213 6.57643 33.5219 6.50002C32.4206 6.47759 31.316 6.62626 30.0842 6.70766C33.4015 5.69769 36.6274 5.13374 39.8293 6.66447C42.5826 7.98341 43.7894 10.417 44.2454 13.299C44.6432 15.7999 44.2952 18.2567 43.7105 20.6927C43.6092 21.1197 43.4265 21.2941 42.9746 21.275C42.1225 21.2442 41.2728 21.2692 40.468 21.2692V21.2683Z" fill="#FD0000"/>
<path d="M6.79265 38.2991C6.88982 38.6164 6.97952 38.9353 7.08667 39.2484C8.28102 42.682 11.1174 44.5649 14.9862 44.349C16.3674 44.2725 17.7296 43.8888 19.1058 43.6895C19.4688 43.6289 19.8409 43.672 20.1797 43.8141C21.0842 44.2593 21.9331 44.8074 22.7113 45.4478C21.3284 45.8622 19.958 46.3249 18.5643 46.6588C16.7005 47.1338 14.7486 47.1496 12.8774 46.7044C9.41309 45.8382 7.1963 43.0906 6.73783 39.1513C6.7071 38.8714 6.6963 38.589 6.67554 38.3074L6.79182 38.2991H6.79265Z" fill="#FD0000"/>
<path d="M34.1574 33.2485L29.3351 37.4453C29.1881 37.5674 29.1026 37.5907 28.9439 37.574L22.6233 35.8307L21.8418 36.6056L26.9248 39.6405L23.8625 42.9337L21.4514 42.4819L20.7346 42.9985L23.1458 44.3548L23.8625 46.6148L24.3185 46.2917L24.4489 43.5151L27.968 40.932L30.1184 47.0658L30.8351 46.2909L30.4439 38.9951C30.4423 38.8614 30.4539 38.8025 30.5087 38.7368L35.2654 34.4112C36.3078 33.4428 35.0702 32.4744 34.1574 33.2493V33.2485Z" fill="#FD0000"/>
<path d="M70.7663 29.0848H74.2422V30.2708H69.2979V23.8846H74.1234V25.0707H70.7663V29.0848ZM70.6567 26.4577H73.7314V27.6072H70.6567V26.4577Z" fill="#333C73"/>
<path d="M64.6457 29.0848H68.1216V30.2708H63.1772V23.8846H68.0028V25.0707H64.6457V29.0848ZM64.5361 26.4577H67.6108V27.6072H64.5361V26.4577Z" fill="#333C73"/>
<path d="M59.4181 30.3805C58.9862 30.3805 58.5876 30.3016 58.2229 30.1429C57.8641 29.9785 57.5693 29.7476 57.3384 29.4494L58.1598 28.4644C58.3359 28.6953 58.5219 28.8722 58.7163 28.9934C58.9106 29.1089 59.1208 29.167 59.3459 29.167C59.948 29.167 60.2487 28.814 60.2487 28.1089V25.0707H58.0045V23.8846H61.7171V28.0267C61.7171 28.8174 61.5228 29.4071 61.1332 29.7966C60.7437 30.1861 60.1723 30.3805 59.4181 30.3805Z" fill="#333C73"/>
<path d="M53.1 28.0084L52.443 27.3149H54.3043C54.7603 27.3149 55.1008 27.2177 55.3259 27.0233C55.551 26.8223 55.6631 26.5491 55.6631 26.2019C55.6631 25.8547 55.551 25.5756 55.3259 25.3805C55.1008 25.1861 54.7603 25.0889 54.3043 25.0889H52.443L53.1 24.3863V28.0084ZM55.6814 30.2708L54.085 27.9536H55.6631L57.2777 30.2708H55.6814ZM51.6216 30.2708V23.8846H54.3857C54.9571 23.8846 55.4497 23.9793 55.8633 24.1678C56.2769 24.3506 56.5958 24.6147 56.8209 24.9619C57.046 25.3082 57.1581 25.7218 57.1581 26.2027C57.1581 26.6836 57.046 27.0873 56.8209 27.4345C56.5958 27.775 56.2769 28.0366 55.8633 28.2193C55.4497 28.4021 54.9571 28.4934 54.3857 28.4934H52.4422L53.0992 27.8456V30.2725H51.6216V30.2708Z" fill="#333C73"/>
<path d="M46.9704 29.0848H50.4463V30.2708H45.502V23.8846H50.3275V25.0707H46.9704V29.0848ZM46.8608 26.4577H49.9355V27.6072H46.8608V26.4577Z" fill="#333C73"/>
<path d="M42.6224 27.6529H39.5028V26.4029H42.6224V27.6529ZM39.6116 30.2708H38.134V23.8846H39.6116V30.2708ZM42.5128 23.8846H43.9904V30.2708H42.5128V23.8846Z" fill="#333C73"/>
<path d="M37.6697 33.0699L33.4786 27.4884L34.4454 26.4394L39.3931 33.0699H37.6688H37.6697ZM31.3806 30.2708V23.8846H32.8491V30.2708H31.3806ZM32.7037 28.8115L32.6215 27.1056L37.5443 21.77H39.1863L34.5642 26.8497L33.7427 27.7252L32.7029 28.8107L32.7037 28.8115Z" fill="#333C73"/>
<path d="M27.0285 30.3805C26.1224 30.3805 25.4139 30.128 24.9031 29.623C24.3923 29.118 24.1365 28.3979 24.1365 27.461V23.8846H25.6141V27.4062C25.6141 28.0142 25.7386 28.4519 25.9878 28.7202C26.237 28.9876 26.5866 29.1213 27.0368 29.1213C27.487 29.1213 27.8366 28.9876 28.0858 28.7202C28.335 28.4527 28.4596 28.015 28.4596 27.4062V23.8846H29.9189V27.461C29.9189 28.3979 29.6631 29.118 29.1523 29.623C28.6415 30.128 27.933 30.3805 27.0268 30.3805H27.0285Z" fill="#333C73"/>
<path d="M15.4788 30.2708V23.8854H16.7005L19.4198 28.3921H18.772L21.4447 23.8854H22.6582L22.6765 30.2708H21.2894L21.2803 26.0109H21.5361L19.4015 29.5964H18.7354L16.5552 26.0109H16.865V30.2708H15.4788Z" fill="#333C73"/>
<path d="M54.9698 34.0034C54.9092 34.0034 54.8784 33.9702 54.8784 33.9029V31.4901C54.8784 31.4237 54.9092 31.3896 54.9698 31.3896H55.1376C55.1982 31.3896 55.2289 31.4228 55.2289 31.4901V33.7044H56.4374C56.5038 33.7044 56.5379 33.7318 56.5379 33.7866V33.9212C56.5379 33.976 56.5047 34.0034 56.4374 34.0034H54.9706H54.9698Z" fill="#FD0000"/>
<path d="M52.929 33.0117H53.8219L53.5428 32.2825C53.5171 32.2144 53.4922 32.1388 53.4664 32.0566C53.4423 31.9743 53.4133 31.8564 53.3792 31.7052H53.3717C53.3377 31.8572 53.3078 31.9743 53.282 32.0566C53.2579 32.1388 53.233 32.2144 53.2073 32.2825L52.9282 33.0117H52.929ZM52.2696 34.0034C52.2064 34.0034 52.1898 33.9635 52.2206 33.883L53.1284 31.5009C53.1566 31.427 53.1965 31.3896 53.2488 31.3896H53.5038C53.5561 31.3896 53.596 31.427 53.6242 31.5009L54.532 33.883C54.5628 33.9635 54.5461 34.0034 54.483 34.0034H54.297C54.2322 34.0034 54.189 33.9735 54.1657 33.9137L53.9382 33.3107H52.8152L52.5877 33.9137C52.5644 33.9735 52.5212 34.0034 52.4564 34.0034H52.2704H52.2696Z" fill="#FD0000"/>
<path d="M50.2753 32.5308H50.7329C50.9356 32.5308 51.1009 32.4876 51.2288 32.4012C51.3575 32.314 51.4223 32.2044 51.4223 32.0732C51.4223 31.9419 51.3741 31.8531 51.2786 31.7875C51.1831 31.7218 51.0012 31.6895 50.7338 31.6895H50.2761V32.5316L50.2753 32.5308ZM50.2753 33.7044H50.7604C51.0212 33.7044 51.213 33.672 51.3343 33.6081C51.4555 33.5433 51.5162 33.4303 51.5162 33.2675C51.5162 33.1172 51.4539 33.0001 51.3301 32.9179C51.2072 32.8356 51.017 32.7941 50.7595 32.7941H50.2745V33.7052L50.2753 33.7044ZM50.0162 34.0034C49.9555 34.0034 49.9248 33.9702 49.9248 33.9029V31.4901C49.9248 31.4237 49.9555 31.3896 50.0162 31.3896H50.7271C51.1399 31.3896 51.4182 31.4561 51.5618 31.5898C51.7055 31.7235 51.777 31.8846 51.777 32.0723C51.777 32.2218 51.7172 32.3489 51.5984 32.4536C51.4796 32.5566 51.3642 32.6172 51.252 32.6355V32.6413C51.375 32.6521 51.5112 32.7135 51.6623 32.8257C51.8143 32.9361 51.8899 33.0865 51.8899 33.2775C51.8899 33.4843 51.8135 33.6562 51.6607 33.7949C51.5087 33.9336 51.228 34.0026 50.8185 34.0026H50.017L50.0162 34.0034Z" fill="#FD0000"/>
<path d="M45.169 34.0034C45.1084 34.0034 45.0776 33.9702 45.0776 33.9029V31.4901C45.0776 31.4237 45.1084 31.3896 45.169 31.3896H45.3368C45.3974 31.3896 45.4281 31.4228 45.4281 31.4901V33.7044H46.6366C46.7031 33.7044 46.7371 33.7318 46.7371 33.7866V33.9212C46.7371 33.976 46.7039 34.0034 46.6366 34.0034H45.1698H45.169Z" fill="#FD0000"/>
<path d="M42.2568 32.6969C42.2568 32.2717 42.3665 31.9386 42.5866 31.6986C42.8067 31.4569 43.1123 31.3356 43.5035 31.3356C43.7377 31.3356 43.9296 31.3763 44.0774 31.4577C44.2253 31.5383 44.3341 31.633 44.4039 31.7418C44.4462 31.8099 44.4454 31.8589 44.4022 31.8896L44.2651 31.9843C44.2203 32.0159 44.1754 31.9968 44.1306 31.9278C44.0941 31.873 44.0251 31.8082 43.9246 31.7326C43.8241 31.6571 43.6896 31.6197 43.5218 31.6197C43.2244 31.6197 43.001 31.7144 42.8532 31.9037C42.7053 32.0923 42.6306 32.3564 42.6306 32.6961C42.6306 33.0358 42.7029 33.3008 42.8474 33.491C42.9919 33.6795 43.2228 33.7733 43.5401 33.7733C43.6979 33.7733 43.8349 33.7542 43.952 33.7169C44.07 33.6778 44.1522 33.6247 44.1995 33.5566V33.074H43.658C43.5916 33.074 43.5575 33.0466 43.5575 32.9918V32.8572C43.5575 32.8024 43.5907 32.775 43.658 32.775H44.4487C44.5151 32.775 44.5492 32.8024 44.5492 32.8572V33.7177C44.4014 33.8257 44.2527 33.9096 44.1049 33.9694C43.957 34.0292 43.7627 34.0591 43.5218 34.0591C43.1206 34.0591 42.81 33.9386 42.5891 33.6986C42.3681 33.4569 42.2577 33.123 42.2577 32.6978L42.2568 32.6969Z" fill="#FD0000"/>
<path d="M49.1125 33.5624C48.8716 33.8032 48.546 33.9378 48.2055 33.9378C47.865 33.9378 47.5394 33.8024 47.2985 33.5624C47.0576 33.3215 46.9231 32.9959 46.9231 32.6554C46.9231 32.3149 47.0585 31.9893 47.2985 31.7484L47.316 31.7318C47.3118 31.7459 47.306 31.7592 47.2985 31.7717C47.2794 31.8016 47.2478 31.8115 47.2279 31.8381C47.2088 31.8647 47.1955 31.8946 47.1872 31.9262C47.1797 31.9561 47.1839 31.9918 47.1739 32.0209C47.1606 32.0582 47.1366 32.0807 47.1415 32.1238C47.1939 32.1388 47.1714 32.0466 47.2146 32.0416C47.2287 32.0765 47.2196 32.1405 47.2146 32.1778C47.2096 32.2293 47.1988 32.2426 47.2296 32.2875C47.2545 32.3223 47.262 32.3473 47.3101 32.3522C47.3575 32.3564 47.3716 32.3772 47.3899 32.4187C47.4231 32.4262 47.4439 32.432 47.448 32.4685C47.4663 32.4826 47.4862 32.4951 47.507 32.5051C47.5294 32.5109 47.5668 32.4793 47.5875 32.5051C47.6224 32.5458 47.5435 32.6521 47.5277 32.6886C47.507 32.7426 47.5037 32.8215 47.5543 32.8597C47.5801 32.8797 47.6083 32.8896 47.6166 32.9253C47.6249 32.9611 47.6183 32.9851 47.6332 33.0175C47.6565 33.0665 47.7088 33.0831 47.7462 33.1205C47.7952 33.1695 47.7919 33.2335 47.7919 33.3032C47.7919 33.373 47.8201 33.432 47.8292 33.4984C47.8392 33.5649 47.8591 33.6313 47.8741 33.6978C47.8849 33.7476 47.9281 33.8232 47.9912 33.8132C47.9954 33.79 47.9704 33.7709 47.968 33.7476C47.9646 33.7243 47.9713 33.7044 47.968 33.6812C47.9621 33.6621 47.9613 33.6421 47.9646 33.623C47.9688 33.6039 47.9771 33.5856 47.9895 33.5707C48.0003 33.5566 48.0145 33.5449 48.0261 33.5317C48.0469 33.5042 48.0311 33.5126 48.0302 33.4827C48.0302 33.4461 48.0402 33.4635 48.0626 33.4527C48.0751 33.4436 48.0867 33.432 48.0959 33.4195C48.1191 33.3988 48.1407 33.3763 48.1606 33.3514C48.1781 33.324 48.1756 33.2866 48.193 33.2592C48.2105 33.231 48.2412 33.2268 48.2686 33.2061C48.3043 33.1795 48.2902 33.1504 48.2969 33.1139C48.3085 33.0483 48.3351 32.9868 48.3749 32.9345C48.4239 32.8722 48.4455 32.8199 48.3857 32.7601C48.3558 32.7302 48.3409 32.7385 48.3018 32.7277C48.2719 32.7202 48.2445 32.6978 48.2146 32.6944C48.1964 32.692 48.1847 32.6986 48.1689 32.6944C48.1532 32.6903 48.1557 32.6803 48.139 32.6812C48.115 32.6812 48.0792 32.7327 48.0601 32.6994C48.0485 32.6812 48.0834 32.6313 48.0817 32.6072C48.0792 32.5773 48.0684 32.5292 48.0394 32.5125C48.0286 32.5067 48.0037 32.5059 47.9904 32.5001C47.9746 32.4934 47.9588 32.486 47.9447 32.4768C47.9264 32.4652 47.8899 32.4436 47.8816 32.4228C47.8591 32.4228 47.8434 32.4096 47.8218 32.4096C47.8027 32.4137 47.7836 32.4162 47.7645 32.417C47.7454 32.4145 47.7238 32.3988 47.7022 32.4021C47.6856 32.4087 47.6689 32.4179 47.6548 32.4295C47.6224 32.4478 47.5884 32.4611 47.5518 32.4677C47.4962 32.4785 47.4862 32.4569 47.4895 32.4054L47.4796 32.3871C47.5003 32.3298 47.463 32.3257 47.4223 32.3116C47.4165 32.2709 47.4671 32.2418 47.4455 32.1969C47.4032 32.1944 47.3558 32.3149 47.3209 32.2625C47.2977 32.2285 47.3334 32.133 47.3542 32.1039C47.3907 32.064 47.4372 32.0341 47.4887 32.0184C47.5012 32.0159 47.5145 32.0184 47.5261 32.0242C47.5377 32.03 47.5469 32.04 47.5518 32.0516C47.5635 32.0782 47.5485 32.1039 47.5518 32.1346C47.5876 32.1263 47.5784 32.0807 47.5768 32.0566C47.5743 32.0159 47.5959 32.0192 47.6166 31.9893C47.6374 31.9602 47.639 31.932 47.6623 31.9054C47.6806 31.8855 47.7022 31.8639 47.7221 31.8456C47.742 31.8273 47.7711 31.8265 47.7952 31.8107C47.8309 31.7866 47.7836 31.7426 47.8367 31.7459C47.8558 31.7459 47.8459 31.7592 47.8708 31.7534C47.8849 31.7484 47.899 31.7426 47.9123 31.7368C47.963 31.716 47.9273 31.7111 47.904 31.6845C47.8741 31.6504 47.9165 31.6562 47.9472 31.6512C47.9696 31.6471 47.9646 31.6405 47.9846 31.6537C48.0045 31.667 47.992 31.6803 48.017 31.6795C48.0651 31.6778 48.0319 31.6297 48.0211 31.6139C48.0028 31.5865 47.9978 31.5674 47.9596 31.5665C47.9646 31.5532 47.9646 31.5391 47.9596 31.5258C47.9272 31.53 47.9214 31.5067 47.8973 31.4976C47.8558 31.4818 47.8625 31.5159 47.8459 31.5391C47.8284 31.5624 47.7952 31.5591 47.7827 31.5881C47.7703 31.6172 47.7827 31.6413 47.7337 31.633C47.7387 31.613 47.7395 31.5931 47.7371 31.5732C47.7238 31.5715 47.7096 31.5682 47.6972 31.5632C47.6972 31.5142 47.7512 31.5101 47.7869 31.5059C47.8226 31.5017 47.8417 31.4586 47.8766 31.4519C47.9123 31.4453 47.9364 31.5009 47.9779 31.4685C48.002 31.4503 47.9912 31.4386 47.9821 31.422C47.9796 31.4179 47.9671 31.4071 47.9646 31.4021C47.997 31.3954 48.0302 31.3905 48.0635 31.3871C48.0709 31.4046 48.0801 31.4212 48.0909 31.4378C48.0959 31.4469 48.1067 31.4527 48.1108 31.4635C48.115 31.4735 48.1042 31.4893 48.1183 31.4976C48.1407 31.5092 48.208 31.4312 48.2221 31.4187C48.2362 31.4062 48.2545 31.3938 48.2495 31.378C48.3542 31.3805 48.4572 31.3963 48.5577 31.4245C48.566 31.4345 48.5734 31.4444 48.5817 31.4544C48.5992 31.4785 48.6116 31.5009 48.6415 31.5117C48.6598 31.5184 48.718 31.5167 48.6939 31.5591C48.6698 31.6006 48.6465 31.5474 48.6341 31.535C48.6208 31.5225 48.5718 31.4993 48.5743 31.5383C48.5768 31.5956 48.7055 31.5865 48.6781 31.6496C48.6939 31.6587 48.7246 31.6737 48.7188 31.6961C48.713 31.7243 48.6764 31.7061 48.6773 31.7418C48.6773 31.7542 48.6814 31.7667 48.6881 31.7775C48.6947 31.7883 48.703 31.7974 48.713 31.8049C48.7229 31.8124 48.7354 31.8165 48.7478 31.8182C48.7603 31.8199 48.7728 31.8182 48.7852 31.8149C48.84 31.7958 48.7985 31.7202 48.8608 31.7119C48.8716 31.7111 48.8832 31.7119 48.8932 31.716C48.9032 31.7194 48.9131 31.726 48.9206 31.7335C48.9389 31.7476 48.9505 31.78 48.9754 31.7775C48.9779 31.7625 48.9663 31.7509 48.9646 31.7368C48.9912 31.7459 49.0145 31.7609 49.0336 31.7816C49.0502 31.8074 49.0485 31.8431 49.0892 31.8116C49.0826 31.8066 49.0801 31.7958 49.0768 31.7916C49.1 31.79 49.1224 31.7958 49.1424 31.8074C49.1623 31.819 49.1781 31.8373 49.1872 31.8581C49.2371 31.9594 49.1141 31.8788 49.1083 31.9312C49.0784 31.9212 49.0643 31.8971 49.0385 31.883C49.0261 31.8763 49.0028 31.8797 48.9937 31.873C48.9837 31.8655 48.9837 31.8464 48.9721 31.8365C48.9273 31.7991 48.8226 31.8597 48.7819 31.8838C48.7703 31.8905 48.7586 31.8913 48.752 31.9029C48.7387 31.9237 48.757 31.9295 48.752 31.9494C48.7462 31.9777 48.7096 31.9901 48.6988 32.0125C48.6723 32.0665 48.7263 32.1429 48.7188 32.2027C48.7146 32.236 48.6789 32.2717 48.693 32.2991C48.6988 32.3107 48.7196 32.3215 48.7271 32.3356C48.7337 32.3506 48.7412 32.3647 48.7495 32.3788C48.7836 32.4245 48.8201 32.4677 48.8591 32.5092C48.8691 32.52 48.8816 32.5275 48.8949 32.5317C48.9082 32.5358 48.9231 32.5358 48.9372 32.5317C48.9671 32.5267 48.9962 32.5175 49.0244 32.5067C49.0543 32.4918 49.0601 32.4702 49.0925 32.4851C49.1191 32.4968 49.1415 32.53 49.1723 32.5026C49.1972 32.5275 49.1698 32.5699 49.164 32.5981C49.1615 32.6155 49.164 32.633 49.1681 32.6496C49.1731 32.6662 49.1822 32.6812 49.1939 32.6944C49.2196 32.7302 49.2263 32.7368 49.2204 32.7841C49.2163 32.8215 49.2063 32.8556 49.1988 32.8929C49.1914 32.9303 49.1689 32.9552 49.1689 32.9926C49.1689 33.03 49.1847 33.0549 49.1806 33.0923C49.1781 33.1272 49.1731 33.1621 49.1656 33.1961C49.1573 33.2293 49.1341 33.2584 49.1241 33.2916C49.1183 33.3082 49.1175 33.3257 49.1199 33.3431C49.1224 33.3606 49.1299 33.3772 49.1399 33.3913C49.1631 33.4187 49.1864 33.4029 49.2138 33.3822C49.2678 33.3415 49.2919 33.2717 49.3276 33.2169C49.365 33.1645 49.3974 33.1089 49.4256 33.0508C49.4306 33.0383 49.4372 33.0258 49.4439 33.0142C49.3841 33.2235 49.2711 33.4137 49.1175 33.5665L49.1125 33.5624ZM48.2055 31.3082C47.9389 31.3082 47.6781 31.3871 47.4572 31.535C47.2354 31.6828 47.0626 31.8938 46.9605 32.1396C46.8583 32.3855 46.8317 32.6571 46.8841 32.9187C46.9364 33.1803 47.0643 33.4204 47.2528 33.6089C47.4414 33.7974 47.6814 33.9253 47.943 33.9777C48.2047 34.03 48.4754 34.0026 48.7221 33.9013C48.9679 33.7991 49.1789 33.6263 49.3268 33.4046C49.4746 33.1828 49.5535 32.922 49.5535 32.6562C49.5535 32.2991 49.4115 31.9561 49.159 31.7036C48.9065 31.4511 48.5635 31.3091 48.2063 31.3091L48.2055 31.3082Z" fill="#FD0000"/>
<path d="M72.5378 33.6861C72.473 33.628 72.4564 33.5765 72.4871 33.5333L72.5818 33.3963C72.6142 33.3489 72.6673 33.3522 72.7404 33.4071C72.8368 33.4785 72.9356 33.5375 73.0394 33.584C73.1441 33.6305 73.2703 33.6529 73.4182 33.6529C73.5278 33.6529 73.62 33.6363 73.6948 33.6039C73.7695 33.5715 73.8301 33.5242 73.875 33.4635C73.9215 33.4012 73.9439 33.3265 73.9439 33.2393C73.9439 33.1762 73.934 33.118 73.9149 33.064C73.8966 33.0092 73.8667 32.9635 73.8252 32.927C73.7836 32.8904 73.7404 32.8622 73.6956 32.8414C73.6217 32.8074 73.5104 32.7684 73.3617 32.7227C73.2147 32.6778 73.086 32.6288 72.9755 32.5765C72.8659 32.5242 72.7786 32.461 72.713 32.3871C72.6482 32.3132 72.6059 32.2368 72.5835 32.1595C72.5627 32.0806 72.5527 31.9909 72.5527 31.8896C72.5527 31.7351 72.5976 31.6022 72.6873 31.4909C72.777 31.3796 72.8874 31.3049 73.017 31.2683C73.1482 31.2318 73.2811 31.2135 73.4157 31.2135C73.5702 31.2135 73.7039 31.2335 73.8185 31.2733C73.9323 31.3132 74.0345 31.3655 74.125 31.4303C74.1881 31.4752 74.2031 31.5225 74.169 31.5723L74.076 31.7052C74.0477 31.7451 73.9938 31.7368 73.9124 31.6795C73.8501 31.6355 73.7745 31.5948 73.6848 31.5574C73.5959 31.5184 73.5079 31.4992 73.4207 31.4992C73.3085 31.4992 73.2164 31.5125 73.1416 31.5391C73.0677 31.5649 73.0095 31.6081 72.9664 31.6703C72.9232 31.7326 72.9024 31.8041 72.9024 31.8855C72.9024 31.9361 72.9074 31.9835 72.9173 32.0275C72.9273 32.0698 72.9522 32.1139 72.9921 32.1587C73.032 32.2036 73.081 32.2385 73.1383 32.2625C73.2147 32.2949 73.3335 32.334 73.4938 32.3788C73.6557 32.4228 73.7961 32.4768 73.9165 32.5408C74.0286 32.6006 74.1084 32.6629 74.1574 32.7285C74.2072 32.7933 74.2454 32.863 74.272 32.9403C74.3002 33.0159 74.3135 33.1006 74.3135 33.1953C74.3135 33.368 74.2695 33.5117 74.1806 33.6272C74.0918 33.7426 73.9871 33.8223 73.865 33.868C73.7429 33.9137 73.5909 33.9353 73.4074 33.9353C73.1873 33.9353 73.0054 33.9096 72.8609 33.8589C72.7163 33.8082 72.6084 33.7493 72.5361 33.6836L72.5378 33.6861ZM70.1416 31.5831C70.0751 31.5831 70.0411 31.5557 70.0411 31.5009V31.3514C70.0411 31.2966 70.0743 31.2692 70.1416 31.2692H72.0693C72.1358 31.2692 72.1698 31.2966 72.1698 31.3514V31.5009C72.1698 31.5557 72.1366 31.5831 72.0693 31.5831H71.2803V33.7825C71.2803 33.8489 71.2496 33.883 71.1889 33.883H71.0212C70.9605 33.883 70.9298 33.8498 70.9298 33.7825V31.5831H70.1408H70.1416ZM68.0951 32.4527H68.6217C68.8584 32.4527 69.0411 32.422 69.1682 32.3597C69.2961 32.2966 69.3592 32.1645 69.3592 31.9644C69.3592 31.8115 69.3011 31.7077 69.1839 31.6529C69.0677 31.5973 68.909 31.569 68.708 31.569H68.0942V32.4527H68.0951ZM67.8359 33.883C67.7753 33.883 67.7446 33.8498 67.7446 33.7825V31.3697C67.7446 31.3032 67.7753 31.2692 67.8359 31.2692H68.7163C69.0677 31.2692 69.321 31.3348 69.478 31.466C69.6358 31.5973 69.7147 31.77 69.7147 31.9851C69.7147 32.1745 69.6507 32.334 69.5236 32.4627C69.3974 32.5914 69.2172 32.6654 68.9821 32.6853V32.6886C69.1059 32.7808 69.1881 32.8514 69.228 32.9004C69.2678 32.9478 69.3127 33.0125 69.3625 33.0939L69.7745 33.7625C69.8243 33.8431 69.8135 33.883 69.7421 33.883H69.5344C69.4771 33.883 69.4348 33.8589 69.4065 33.8115L69.0278 33.1612C68.973 33.0674 68.8949 32.976 68.7928 32.8863C68.6906 32.7966 68.5635 32.7517 68.4115 32.7517H68.0942V33.7833C68.0942 33.8498 68.0635 33.8838 68.0029 33.8838H67.8351L67.8359 33.883ZM65.1989 32.5765C65.1989 32.917 65.2687 33.1811 65.4082 33.3713C65.5477 33.5599 65.7604 33.6537 66.0461 33.6537C66.3318 33.6537 66.5444 33.5599 66.6839 33.3713C66.8235 33.182 66.8932 32.917 66.8932 32.5765C66.8932 32.236 66.8235 31.9718 66.6839 31.7841C66.5444 31.5948 66.3318 31.5001 66.0461 31.5001C65.7604 31.5001 65.5477 31.5948 65.4082 31.7841C65.2687 31.9727 65.1989 32.2368 65.1989 32.5765ZM64.8251 32.5765C64.8251 32.1512 64.9298 31.8182 65.1383 31.5782C65.3484 31.3365 65.6507 31.2152 66.0461 31.2152C66.4414 31.2152 66.7429 31.3365 66.9514 31.5782C67.1615 31.819 67.267 32.1512 67.267 32.5765C67.267 33.0017 67.1615 33.3348 66.9514 33.5773C66.7421 33.8182 66.4406 33.9378 66.0461 33.9378C65.6515 33.9378 65.3484 33.8174 65.1383 33.5773C64.929 33.3356 64.8251 33.0017 64.8251 32.5765ZM62.9339 32.535H63.4464C63.7138 32.535 63.8957 32.4976 63.9929 32.422C64.0901 32.3456 64.1391 32.2218 64.1391 32.0524C64.1391 31.883 64.0901 31.7592 63.9929 31.6845C63.8957 31.6081 63.7138 31.5698 63.4464 31.5698H62.9339V32.5358V32.535ZM62.6748 33.8838C62.6142 33.8838 62.5834 33.8506 62.5834 33.7833V31.3705C62.5834 31.3041 62.6142 31.27 62.6748 31.27H63.4397C63.8525 31.27 64.1316 31.3398 64.2761 31.4793C64.4206 31.618 64.4929 31.8082 64.4929 32.0516C64.4929 32.2949 64.4206 32.486 64.2761 32.6255C64.1316 32.7642 63.8525 32.8331 63.4397 32.8331H62.9331V33.7825C62.9331 33.8489 62.9024 33.883 62.8417 33.883H62.674L62.6748 33.8838ZM60.1125 33.8838C60.0336 33.8838 60.0228 33.8439 60.0801 33.7634L60.9547 32.535L60.1416 31.3904C60.0843 31.3099 60.0951 31.27 60.174 31.27H60.3982C60.4514 31.27 60.4946 31.2941 60.5261 31.3414L61.1657 32.2924L61.8052 31.3414C61.8368 31.2941 61.8791 31.27 61.9331 31.27H62.1573C62.2363 31.27 62.2471 31.3099 62.1897 31.3904L61.3766 32.535L62.2512 33.7634C62.3085 33.8439 62.2977 33.8838 62.2188 33.8838H61.9929C61.9397 33.8838 61.8966 33.8597 61.865 33.8124L61.1648 32.7775L60.4647 33.8124C60.4331 33.8597 60.3907 33.8838 60.3367 33.8838H60.1108H60.1125ZM57.973 33.8838C57.9123 33.8838 57.8816 33.8506 57.8816 33.7833V31.3705C57.8816 31.3041 57.9123 31.27 57.973 31.27H59.5676C59.6341 31.27 59.6681 31.2974 59.6681 31.3522V31.4868C59.6681 31.5416 59.6349 31.569 59.5676 31.569H58.2321V32.378H59.4588C59.5253 32.378 59.5593 32.4054 59.5593 32.4602V32.5948C59.5593 32.6496 59.5261 32.677 59.4588 32.677H58.2321V33.5848H59.6225C59.6889 33.5848 59.723 33.6122 59.723 33.667V33.8016C59.723 33.8564 59.6897 33.8838 59.6225 33.8838H57.973Z" fill="#FD0000"/>
</svg>
